<svg xmlns="http://www.w3.org/2000/svg" width="1280" height="720" viewBox="0 0 1280 720">
  <defs>
    <radialGradient id="glow3" cx="0.28" cy="0.5" r="0.7"><stop offset="0" stop-color="#2A3E5E"/><stop offset="1" stop-color="#151B28"/></radialGradient>
    <linearGradient id="fade3" x1="0" y1="0" x2="1" y2="0"><stop offset="0" stop-color="#151B28"/><stop offset="1" stop-color="#E9EAEC"/></linearGradient>
    <filter id="sh3"><feDropShadow dx="0" dy="6" stdDeviation="10" flood-color="#000" flood-opacity="0.28"/></filter>
  </defs>
  <!-- base: dark left visual fading into light right -->
  <rect width="1280" height="720" fill="#E9EAEC"/>
  <rect width="760" height="720" fill="url(#glow3)"/>
  <rect x="560" y="0" width="200" height="720" fill="url(#fade3)" opacity="0.9"/>
  <!-- abstract data tower silhouette -->
  <g fill="#0F1622" opacity="0.9">
    <rect x="180" y="300" width="150" height="330"/>
    <rect x="210" y="240" width="90" height="70"/>
    <rect x="238" y="180" width="34" height="66"/>
  </g>
  <g stroke="#35A7CF" stroke-width="2" opacity="0.85">
    <line x1="255" y1="180" x2="255" y2="120"/>
    <circle cx="255" cy="110" r="7" fill="none"/>
    <line x1="120" y1="360" x2="180" y2="360"/><line x1="330" y1="420" x2="400" y2="420"/>
  </g>
  <g fill="#F2C14E" opacity="0.8">
    <circle cx="140" cy="260" r="3"/><circle cx="430" cy="300" r="3"/><circle cx="390" cy="180" r="2.4"/>
  </g>
  <!-- left texts on dark -->
  <text x="90" y="120" font-family="'Noto Sans SC','Microsoft YaHei',sans-serif" font-size="15" fill="#8A93A6" letter-spacing="4">BREAKING · NEW GENERATION</text>
  <text x="90" y="620" font-family="'Noto Sans SC','Microsoft YaHei',sans-serif" font-size="16" fill="#C9D2E0">已经准备好为您服务了，博士。</text>
  <text x="90" y="648" font-family="'Noto Sans SC','Microsoft YaHei',sans-serif" font-size="13" fill="#5A6478">PRTS · 2026/09/12</text>
  <!-- right floating panels -->
  <!-- big number panel -->
  <g filter="url(#sh3)">
    <rect x="700" y="90" width="300" height="150" fill="#FFFFFF"/>
    <text x="720" y="200" font-family="'Noto Sans SC','Microsoft YaHei',sans-serif" font-size="110" font-weight="900" fill="#111318" letter-spacing="-6">2.5</text>
    <text x="895" y="140" font-family="'Noto Sans SC','Microsoft YaHei',sans-serif" font-size="19" font-weight="700" fill="#111318">认知模型</text>
    <text x="895" y="167" font-family="'Noto Sans SC','Microsoft YaHei',sans-serif" font-size="11" fill="#8A8F98">SPARK · 当前版本</text>
  </g>
  <!-- two white cards -->
  <g filter="url(#sh3)">
    <rect x="700" y="264" width="142" height="110" fill="#FFFFFF"/>
    <rect x="716" y="280" width="30" height="30" fill="#DDE0E4"/>
    <path d="M722,302 L731,288 L740,302 Z" fill="#8A8F98"/>
    <text x="716" y="342" font-family="'Noto Sans SC','Microsoft YaHei',sans-serif" font-size="18" font-weight="700" fill="#111318">能力</text>
    <rect x="858" y="264" width="142" height="110" fill="#FFFFFF"/>
    <rect x="874" y="280" width="30" height="30" fill="#DDE0E4"/>
    <circle cx="889" cy="295" r="9" fill="none" stroke="#8A8F98" stroke-width="3"/>
    <text x="874" y="342" font-family="'Noto Sans SC','Microsoft YaHei',sans-serif" font-size="18" font-weight="700" fill="#111318">场景</text>
  </g>
  <!-- cyan action panel -->
  <g filter="url(#sh3)">
    <rect x="700" y="398" width="480" height="86" fill="#2FA6DE"/>
    <text x="724" y="448" font-family="'Noto Sans SC','Microsoft YaHei',sans-serif" font-size="20" font-weight="700" fill="#FFFFFF">多模态引擎</text>
    <line x1="856" y1="414" x2="856" y2="468" stroke="#FFFFFF" stroke-width="1" opacity="0.6"/>
    <text x="880" y="448" font-family="'Noto Sans SC','Microsoft YaHei',sans-serif" font-size="20" font-weight="700" fill="#FFFFFF">长文推理</text>
    <line x1="992" y1="414" x2="992" y2="468" stroke="#FFFFFF" stroke-width="1" opacity="0.6"/>
    <text x="1016" y="448" font-family="'Noto Sans SC','Microsoft YaHei',sans-serif" font-size="20" font-weight="700" fill="#FFFFFF">极速响应</text>
  </g>
  <!-- task cards with warning colors -->
  <g filter="url(#sh3)" font-family="'Noto Sans SC','Microsoft YaHei',sans-serif">
    <rect x="700" y="508" width="480" height="52" fill="#FFFFFF"/>
    <rect x="712" y="518" width="32" height="32" fill="#E14A4A"/>
    <path d="M722,540 L728,526 L734,540 Z" fill="#FFFFFF"/>
    <text x="760" y="540" font-size="16" font-weight="700" fill="#111318">128K 上下文</text>
    <text x="1160" y="540" font-size="14" fill="#8A8F98" text-anchor="end">已启用</text>
    <rect x="700" y="572" width="480" height="52" fill="#FFFFFF"/>
    <rect x="712" y="582" width="32" height="32" fill="#F2A93B"/>
    <path d="M722,604 L728,590 L734,604 Z" fill="#FFFFFF"/>
    <text x="760" y="604" font-size="16" font-weight="700" fill="#111318">推理加速计划</text>
    <rect x="980" y="596" width="160" height="6" fill="#E3E5E8"/>
    <rect x="980" y="596" width="104" height="6" fill="#F2A93B"/>
    <polygon points="1084,592 1092,599 1084,606 1076,599" fill="#111318"/>
  </g>
  <!-- bottom chevron banner + nav -->
  <g filter="url(#sh3)">
    <polygon points="700,648 1060,648 1084,674 1060,700 700,700 700,648" fill="#FFFFFF"/>
    <text x="722" y="680" font-family="'Noto Sans SC','Microsoft YaHei',sans-serif" font-size="15" font-weight="700" fill="#111318">前往能力白皮书</text>
    <path d="M860,660 L872,674 L860,688" stroke="#111318" stroke-width="2.5" fill="none"/>
  </g>
  <g stroke="#C9CCD1" stroke-width="1">
    <line x1="1120" y1="660" x2="1120" y2="688"/>
    <line x1="1160" y1="660" x2="1160" y2="688"/>
    <line x1="1200" y1="660" x2="1200" y2="688"/>
    <line x1="1240" y1="660" x2="1240" y2="688"/>
  </g>
  <g fill="#8A8F98">
    <rect x="1108" y="668" width="10" height="12"/><circle cx="1168" cy="674" r="6" fill="none" stroke="#8A8F98" stroke-width="2.5"/><rect x="1192" y="668" width="14" height="12" fill="none" stroke="#8A8F98" stroke-width="2.5"/><rect x="1232" y="670" width="12" height="10"/>
  </g>
</svg>
